<svg width="200" height="200" viewBox="0 0 200 200" fill="none" xmlns="http://www.w3.org/2000/svg">
<!-- Fondo circular con gradiente -->
<circle cx="100" cy="100" r="95" fill="url(#gradientBg)" stroke="#E5E7EB" stroke-width="2"/>

<!-- Circuitos electrónicos (lado izquierdo) -->
<g transform="translate(20, 40)">
  <!-- Líneas principales de circuito -->
  <path d="M10 20L10 40L20 40L20 60L30 60" stroke="#6B7280" stroke-width="3" fill="none"/>
  <path d="M10 80L10 100L20 100L20 120L30 120" stroke="#6B7280" stroke-width="3" fill="none"/>
  <path d="M40 40L60 40L60 60L70 60" stroke="#6B7280" stroke-width="3" fill="none"/>
  <path d="M40 100L60 100L60 120L70 120" stroke="#6B7280" stroke-width="3" fill="none"/>
  
  <!-- Nodos de circuito -->
  <circle cx="10" cy="40" r="6" fill="#6B7280"/>
  <circle cx="10" cy="40" r="3" fill="white"/>
  <circle cx="20" cy="60" r="5" fill="#6B7280"/>
  <circle cx="20" cy="60" r="2.5" fill="white"/>
  <circle cx="10" cy="100" r="6" fill="#6B7280"/>
  <circle cx="10" cy="100" r="3" fill="white"/>
  <circle cx="20" cy="120" r="5" fill="#6B7280"/>
  <circle cx="20" cy="120" r="2.5" fill="white"/>
  <circle cx="60" cy="60" r="4" fill="#6B7280"/>
  <circle cx="60" cy="60" r="2" fill="white"/>
  <circle cx="60" cy="120" r="4" fill="#6B7280"/>
  <circle cx="60" cy="120" r="2" fill="white"/>
</g>

<!-- Letra R principal -->
<g transform="translate(100, 40)">
  <!-- Base de la R -->
  <path d="M0 20 C0 10 8 0 20 0 L50 0 C62 0 70 8 70 20 L70 35 C70 47 62 55 50 55 L35 55 L60 85 C62 88 60 92 56 92 C54 92 52 91 51 89 L30 55 L15 55 L15 100 C15 102 13 104 10 104 C7 104 5 102 5 100 L5 20 C5 8 7 0 0 0 Z" fill="#1E40AF"/>
  
  <!-- Parte interna blanca de la R -->
  <path d="M15 15 L15 45 L45 45 C52 45 55 42 55 35 L55 25 C55 18 52 15 45 15 L15 15 Z" fill="white"/>
</g>

<!-- Hoja ecológica -->
<g transform="translate(140, 60)">
  <path d="M15 5 C22 2 28 4 30 10 C31 13 30 16 27 18 C24 20 21 22 18 23 C15 24 12 22 11 19 C10 16 9 13 10 10 C11 7 13 5 15 5 Z" fill="#22C55E"/>
  <!-- Vena de la hoja -->
  <path d="M13 12 Q19 15 25 16" stroke="#16A34A" stroke-width="1" fill="none"/>
</g>

<!-- Elementos decorativos adicionales -->
<g transform="translate(60, 140)">
  <!-- Elementos de reciclaje -->
  <circle cx="20" cy="20" r="8" fill="none" stroke="#1E40AF" stroke-width="2"/>
  <path d="M15 15 L25 25 M25 15 L15 25" stroke="#1E40AF" stroke-width="2"/>
  
  <circle cx="50" cy="20" r="8" fill="none" stroke="#22C55E" stroke-width="2"/>
  <path d="M45 20 L55 20 M50 15 L50 25" stroke="#22C55E" stroke-width="2"/>
</g>

<!-- Gradientes -->
<defs>
  <linearGradient id="gradientBg" x1="0%" y1="0%" x2="100%" y2="100%">
    <stop offset="0%" style="stop-color:#F0F9FF;stop-opacity:1" />
    <stop offset="100%" style="stop-color:#E0F2FE;stop-opacity:1" />
  </linearGradient>
</defs>
</svg>
